<?xml version="1.0" encoding="UTF-8"?> <svg xmlns="http://www.w3.org/2000/svg" id="Laag_1" viewBox="0 0 174.35 56.69"><defs><style>.cls-1{fill:#edc12b;}.cls-2{fill:#2f4390;}</style></defs><path class="cls-1" d="M174.35,56.39h-8.26c-13.22,0-132.49,.31-145.7,.3-6.58,0-11.77-2.03-15.4-6.2-1.75-2.01-2.8-4.36-3.42-6.92l-1.57-7.57H4.09c.06-.09,.09-.18,.14-.27-.04,.09-.1,.18-.14,.27h2.38c13.86,0,133.79-.42,147.61-.27,10.02,.11,16.13,4.48,18.4,12.61,.14,.51,.21,1.11,.29,1.67h.03l1.54,6.38Z"></path><polygon class="cls-2" points="145.72 53.74 145.72 38.65 162.15 38.65 162.15 40.33 147.74 40.33 147.74 45.06 161.54 45.06 161.54 46.75 147.74 46.75 147.74 52.06 162.15 52.06 162.15 53.74 145.72 53.74"></polygon><polygon class="cls-2" points="117.52 53.74 115.5 53.74 115.5 38.65 118.49 38.65 128.51 51.77 138.53 38.65 141.61 38.65 141.61 53.74 139.59 53.74 139.59 40.45 129.34 53.74 127.78 53.74 117.52 40.45 117.52 53.74"></polygon><path class="cls-2" d="M96.85,48.82h11.25l-5.67-8.68-5.58,8.68Zm-5.5,4.92l9.68-15.09h2.75l9.71,15.09h-2.19l-2.19-3.32h-13.27l-2.13,3.32h-2.36Z"></path><polygon class="cls-2" points="77.06 53.74 77.06 38.65 79.13 38.65 79.13 52.08 92.09 52.08 92.09 53.74 77.06 53.74"></polygon><path class="cls-2" d="M61.19,53.93c-1.71,0-2.96-.08-3.74-.24-.78-.16-1.43-.43-1.93-.82-.55-.43-.96-.99-1.21-1.69-.25-.71-.37-1.64-.37-2.79v-4.11c0-1.26,.13-2.26,.37-3.01,.25-.74,.65-1.33,1.21-1.75,.5-.38,1.15-.66,1.96-.82,.81-.16,2.03-.24,3.69-.24h5.25c2.72,0,4.55,.3,5.51,.92,.96,.61,1.43,1.73,1.43,3.35,0,.21,0,.37,0,.49,0,.11,0,.22-.02,.31h-1.9v-.22c0-1.18-.29-2-.86-2.47-.57-.47-1.58-.71-3.02-.71h-7.22c-.99,0-1.76,.08-2.3,.25-.55,.17-.98,.45-1.28,.84-.21,.28-.37,.61-.46,1-.09,.38-.13,1.03-.13,1.94v4c0,.91,.05,1.55,.13,1.94,.09,.38,.24,.72,.46,.99,.31,.39,.73,.67,1.28,.84,.55,.17,1.32,.25,2.3,.25h7.2c1.58,0,2.65-.23,3.22-.69,.57-.46,.86-1.3,.86-2.51v-.42h1.9c0,.09,0,.22,.01,.39,0,.17,.01,.28,.01,.36,0,.95-.1,1.7-.31,2.27-.21,.56-.55,1.03-1.02,1.38-.45,.35-1.07,.6-1.88,.74-.81,.14-2.11,.21-3.92,.21h-5.23Z"></path><polygon class="cls-2" points="34.79 53.74 34.79 38.65 51.22 38.65 51.22 40.33 36.81 40.33 36.81 45.06 50.62 45.06 50.62 46.75 36.81 46.75 36.81 52.06 51.22 52.06 51.22 53.74 34.79 53.74"></polygon><path class="cls-2" d="M25.24,40.29H14.72v5.79h10.52c1.5,0,2.49-.17,2.98-.5,.49-.34,.73-1.01,.73-2.03v-.72c0-1.01-.24-1.69-.73-2.03-.49-.34-1.48-.51-2.98-.51m-10.52,13.45h-2.07v-15.09h11.91c2.65,0,4.41,.26,5.27,.76,.86,.51,1.29,1.45,1.29,2.82v1.82c0,.93-.21,1.62-.64,2.05-.43,.43-1.19,.75-2.29,.96,.91,.09,1.59,.38,2.06,.88,.46,.49,.69,1.18,.69,2.06v3.74h-2.07v-3.36c0-.99-.24-1.66-.71-2.02-.47-.36-1.58-.54-3.32-.54H14.72v5.92Z"></path><path class="cls-2" d="M150.89,29.63h5.88c3.29,0,5.47-.48,6.55-1.45,1.08-.97,1.62-2.86,1.62-5.66v-2.71c0-2.72-.54-4.55-1.63-5.5-1.08-.95-3.27-1.42-6.54-1.42h-5.88c-3.26,0-5.43,.47-6.52,1.42-1.08,.95-1.62,2.78-1.62,5.5v2.71c0,2.81,.53,4.69,1.61,5.66,1.07,.97,3.24,1.45,6.52,1.45m-.92,3.38c-3.89,0-6.67-.77-8.32-2.31-1.66-1.55-2.49-4.14-2.49-7.79v-3.58c0-3.49,.84-6,2.52-7.51,1.68-1.51,4.44-2.27,8.29-2.27h7.76c3.85,0,6.61,.76,8.29,2.27,1.68,1.51,2.52,4.01,2.52,7.51v3.58c0,3.65-.83,6.24-2.49,7.79-1.65,1.54-4.43,2.31-8.32,2.31h-7.76Z"></path><path class="cls-2" d="M116.99,29.63h5.01c3.28,0,5.45-.48,6.52-1.45,1.08-.97,1.61-2.86,1.61-5.66v-2.71c0-2.72-.54-4.55-1.62-5.5-1.08-.95-3.25-1.42-6.52-1.42h-5.01c-3.25,0-5.41,.47-6.49,1.42-1.08,.95-1.62,2.78-1.62,5.5v2.71c0,2.81,.53,4.69,1.6,5.66,1.07,.97,3.24,1.45,6.52,1.45m-.13,3.38c-2.49,0-4.34-.31-5.56-.93-1.22-.61-2.15-1.66-2.78-3.12v3.74h-3.06V.4h3.47V12.73c.78-1.1,1.72-1.9,2.86-2.41,1.13-.51,2.53-.77,4.2-.77h6.95c3.85,0,6.61,.76,8.29,2.27,1.68,1.51,2.52,4.01,2.52,7.51v3.58c0,3.65-.83,6.24-2.49,7.79-1.65,1.54-4.43,2.31-8.32,2.31h-6.07Z"></path><path class="cls-2" d="M74.74,18.79h20.95v-.54c0-2.04-.51-3.45-1.54-4.22-1.02-.76-3.07-1.15-6.13-1.15h-5.59c-2.85,0-4.84,.44-5.97,1.33-1.13,.9-1.71,2.42-1.71,4.57m13.36-9.24c4.25,0,7.2,.8,8.87,2.39,1.66,1.59,2.5,4.38,2.5,8.37,0,.48,0,.84,0,1.09,0,.24-.02,.47-.04,.67l-24.69,.02v1.24c0,2.41,.58,4.09,1.74,5.04,1.16,.95,3.18,1.43,6.05,1.43h5.88c2.5,0,4.35-.31,5.54-.94,1.19-.63,1.79-1.6,1.79-2.91v-.24h3.73v.58c0,2.2-.87,3.86-2.61,5-1.73,1.13-4.28,1.7-7.63,1.7h-6.75c-4.06,0-6.97-.76-8.72-2.28-1.75-1.52-2.63-4.03-2.63-7.57v-3.65c0-3.58,.87-6.14,2.61-7.67,1.73-1.52,4.65-2.29,8.74-2.29h5.61Z"></path><path class="cls-2" d="M51.24,9.86h14.85v3.06h-14.89v12c0,1.87,.4,3.15,1.2,3.83,.8,.7,2.63,1.04,5.49,1.04,2.31,0,3.87-.29,4.65-.87,.78-.58,1.18-1.83,1.18-3.75v-2.93h3.12v2.93c0,2.89-.72,4.92-2.16,6.08-1.43,1.16-3.98,1.74-7.63,1.74-1.9,0-3.46-.18-4.67-.54-1.21-.36-2.21-.94-2.99-1.72-.59-.58-1-1.27-1.24-2.05-.24-.79-.37-2.12-.37-4.01V12.93h-4.83v-3.06h4.83V4.62h3.47v5.24Z"></path><path class="cls-2" d="M4.02,22.16h3.82c-.01,.16-.03,.37-.04,.63-.03,.62-.04,1.04-.04,1.28,0,2.02,.66,3.43,1.98,4.23,1.32,.79,3.78,1.19,7.38,1.19h8.34c4.34,0,7.17-.44,8.48-1.3,1.32-.87,1.98-2.52,1.98-4.96,0-2.04-.46-3.43-1.38-4.19-.92-.76-2.8-1.14-5.65-1.14H15.39c-4.25,0-7.24-.67-8.96-2.01-1.72-1.34-2.58-3.63-2.58-6.89s.98-5.66,2.94-7C8.76,.67,12.35,0,17.58,0h7.25c3.96,0,6.73,.16,8.32,.46,1.59,.3,2.83,.83,3.73,1.58,.73,.64,1.27,1.47,1.62,2.5,.35,1.04,.53,2.33,.53,3.89v.93h-3.82v-.5c0-2.12-.51-3.55-1.51-4.29-1.01-.75-3.15-1.12-6.41-1.12h-10.89c-3.32,0-5.55,.38-6.7,1.15-1.15,.77-1.73,2.18-1.73,4.23s.56,3.51,1.68,4.29c1.12,.78,3.46,1.17,7,1.17h11.47c2.5,0,4.39,.1,5.65,.3,1.27,.2,2.28,.53,3.04,1,1.1,.65,1.88,1.56,2.35,2.73,.46,1.17,.7,2.88,.7,5.12,0,3.58-.95,6.09-2.86,7.51-1.91,1.41-5.35,2.12-10.33,2.12H15.84c-4.29,0-7.34-.66-9.17-1.97-1.82-1.31-2.74-3.49-2.74-6.52,0-.41,.02-1.1,.06-2.07,0-.16,0-.28,.02-.37"></path></svg> 